<?xml version="1.0" standalone="no"?>
<!DOCTYPE svg PUBLIC "-//W3C//DTD SVG 20010904//EN"
 "http://www.w3.org/TR/2001/REC-SVG-20010904/DTD/svg10.dtd">
<svg version="1.0" xmlns="http://www.w3.org/2000/svg"
 width="16.000000pt" height="16.000000pt" viewBox="0 0 16.000000 16.000000"
 preserveAspectRatio="xMidYMid meet">
<metadata>
Created by potrace 1.11, written by Peter Selinger 2001-2013
</metadata>
<g transform="translate(0.000000,16.000000) scale(0.015842,-0.015842)"
fill="#000000" stroke="none">
<path d="M360 992 c-8 -2 -30 -11 -48 -18 -18 -7 -36 -14 -40 -14 -21 -3 -85
-53 -143 -113 -40 -41 -119 -167 -105 -167 3 0 -2 -16 -10 -36 -11 -27 -15
-67 -13 -153 1 -64 5 -123 9 -131 62 -138 145 -250 185 -250 10 0 37 -16 61
-35 72 -59 110 -69 264 -70 125 0 185 15 231 58 13 12 27 23 31 23 5 1 12 2
16 3 13 2 76 63 107 104 26 35 69 126 81 170 2 9 7 27 10 40 7 28 6 153 -1
187 -3 14 -8 41 -11 60 -3 19 -17 52 -30 72 -13 21 -24 42 -24 47 0 5 -31 41
-69 79 -70 72 -130 110 -181 117 -15 2 -39 11 -53 20 -20 13 -48 16 -138 14
-63 -1 -121 -4 -129 -7z"/>
</g>
</svg>
